<?xml version="1.0" encoding="UTF-8" standalone="no"?>
<svg
   xmlns:dc="http://purl.org/dc/elements/1.1/"
   xmlns:cc="http://creativecommons.org/ns#"
   xmlns:rdf="http://www.w3.org/1999/02/22-rdf-syntax-ns#"
   xmlns:svg="http://www.w3.org/2000/svg"
   xmlns="http://www.w3.org/2000/svg"
   viewBox="0 0 947.78131 794.30536"
   height="794.30536"
   width="947.78131"
   xml:space="preserve"
   id="svg2"
   version="1.1"><metadata
     id="metadata8"><rdf:RDF><cc:Work
         rdf:about=""><dc:format>image/svg+xml</dc:format><dc:type
           rdf:resource="http://purl.org/dc/dcmitype/StillImage" /></cc:Work></rdf:RDF></metadata><defs
     id="defs6"><clipPath
       id="clipPath18"
       clipPathUnits="userSpaceOnUse"><path
         id="path16"
         d="M 0,595.729 H 710.836 V 0 H 0 Z" /></clipPath><clipPath
       id="clipPath30"
       clipPathUnits="userSpaceOnUse"><path
         id="path28"
         d="M 0,595.729 H 710.836 V 0 H 0 Z" /></clipPath><clipPath
       id="clipPath42"
       clipPathUnits="userSpaceOnUse"><path
         id="path40"
         d="M 0,595.729 H 710.836 V 0 H 0 Z" /></clipPath><clipPath
       id="clipPath70"
       clipPathUnits="userSpaceOnUse"><path
         id="path68"
         d="M 0,595.729 H 710.836 V 0 H 0 Z" /></clipPath></defs><g
     transform="matrix(1.3333333,0,0,-1.3333333,0,794.30533)"
     id="g10"><g
       id="g12"><g
         clip-path="url(#clipPath18)"
         id="g14"><g
           transform="translate(192.6919,357.752)"
           id="g20"><path
             id="path22"
             style="fill:#231f20;fill-opacity:1;fill-rule:nonzero;stroke:none"
             d="m 0,0 237.176,-40.45 c -4.862,-7.589 -14.459,-9.546 -21.583,-9.546 -9.118,0 -43.396,0.415 -56.578,0.415 -52.503,0 -116.917,2.075 -158.851,4.907 0.508,-10.484 2.059,-42.162 2.772,-52.896 1.062,-16.039 1.574,-19.11 5.568,-21.851 1.86,-1.271 5.412,-3.041 14.815,-3.698 90.385,-6.327 162.502,-6.862 233.351,-3.01 30.576,1.668 43.385,3.99 54.365,13.739 7.956,7.066 12.016,18.802 12.67,38.081 0.546,16.077 1.269,44.127 1.495,52.962 L 0,39.206 Z m 326.313,-204.84 v -14.926 h 47.515 v -61.53 h 20.248 v 61.53 h 47.613 v 14.926 z m -45.051,-14.926 v -24.19 h -76.955 v 6.718 c 0,10.468 1.673,17.472 14.028,17.472 z m -97.202,-13.031 v -48.499 h 20.247 v 22.323 h 76.955 v -22.323 h 20.251 v 76.456 h -87.919 c -20.248,0 -29.534,-10.767 -29.534,-27.957 M 102.332,87.292 c 4.926,0.629 46.418,1.374 92.512,0.909 46.094,-0.465 98.997,-3.18 130.175,-4.782 -0.662,13.459 -1.887,37.944 -2.499,47.122 -1.06,16.038 -1.567,19.11 -5.566,21.851 -1.853,1.272 -5.412,3.041 -14.815,3.698 -90.385,6.327 -162.502,6.857 -233.351,3.006 C 38.211,157.435 25.402,155.105 14.423,145.357 6.466,138.295 2.41,126.558 1.753,107.291 1.246,92.233 0.576,66.673 0.311,56.232 L 325.465,0 V 34.9 L 86.279,79.237 c 1.359,2.064 5.981,6.77 16.053,8.055 M 33.993,-255.02 c 0,-17.179 9.408,-26.276 29.642,-26.276 h 89.115 v 14.918 H 68.382 c -11.855,0 -14.026,3.846 -14.026,14.525 v 2.462 h 94.436 v 14.618 H 54.356 v 15.007 h 98.394 v 14.926 H 33.993 Z m -48.877,17.384 -75.367,6.226 c -6.228,0.493 -7.32,2.659 -7.32,6.417 0,3.456 1.878,5.44 6.619,5.44 H 2.203 v 14.713 h -95.517 c -13.641,0 -22.922,-5.244 -22.922,-20.452 0,-15.31 7.01,-20.45 22.518,-21.731 l 75.572,-6.32 c 5.83,-0.496 7.408,-2.468 7.408,-6.611 0,-3.96 -1.782,-6.424 -6.918,-6.424 h -94.824 v -14.918 h 96.508 c 16.596,0 23.903,6.626 23.903,22.323 0,14.318 -6.626,19.954 -22.815,21.337" /></g><g
           id="g24"><g
             id="g26" /><g
             id="g34"><g
               id="g32"
               clip-path="url(#clipPath30)" /></g></g></g></g><g
       id="g36"><g
         clip-path="url(#clipPath42)"
         id="g38"><g
           transform="translate(634.3814,37.5361)"
           id="g44"><path
             id="path46"
             style="fill:none;stroke:#00adef;stroke-width:0.5;stroke-linecap:butt;stroke-linejoin:miter;stroke-miterlimit:10;stroke-dasharray:none;stroke-opacity:1"
             d="m 0,0 h 14.926 v 47.515 h 61.53 v 20.248 h -61.53 v 47.613 H 0 Z" /></g><g
           transform="translate(634.3814,37.5361)"
           id="g48"><path
             id="path50"
             style="fill:none;stroke:#00adef;stroke-width:0.5;stroke-linecap:butt;stroke-linejoin:miter;stroke-miterlimit:10;stroke-dasharray:none;stroke-opacity:1"
             d="m 0,0 h 14.926 v 47.515 h 61.53 v 20.248 h -61.53 v 47.613 H 0 Z" /></g><g
           transform="translate(298.2251,76.4561)"
           id="g52"><path
             id="path54"
             style="fill:none;stroke:#00adef;stroke-width:0.5;stroke-linecap:butt;stroke-linejoin:miter;stroke-miterlimit:10;stroke-dasharray:none;stroke-opacity:1"
             d="m 0,0 v -14.926 h 47.515 v -61.53 h 20.248 v 61.53 h 47.613 V 0 Z" /></g><g
           transform="translate(298.2251,76.4561)"
           id="g56"><path
             id="path58"
             style="fill:none;stroke:#00adef;stroke-width:0.5;stroke-linecap:butt;stroke-linejoin:miter;stroke-miterlimit:10;stroke-dasharray:none;stroke-opacity:1"
             d="m 0,0 v -14.926 h 47.515 v -61.53 h 20.248 v 61.53 h 47.613 V 0 Z" /></g></g></g><g
       transform="translate(298.2251,229.3682)"
       id="g60"><path
         id="path62"
         style="fill:none;stroke:#00adef;stroke-width:0.5;stroke-linecap:butt;stroke-linejoin:miter;stroke-miterlimit:10;stroke-dasharray:none;stroke-opacity:1"
         d="m 0,0 v -14.926 h 47.515 v -61.53 h 20.248 v 61.53 h 47.613 V 0 Z" /></g><g
       id="g64"><g
         clip-path="url(#clipPath70)"
         id="g66"><g
           transform="translate(298.2251,595.7295)"
           id="g72"><path
             id="path74"
             style="fill:none;stroke:#00adef;stroke-width:0.5;stroke-linecap:butt;stroke-linejoin:miter;stroke-miterlimit:10;stroke-dasharray:none;stroke-opacity:1"
             d="m 0,0 v -14.926 h 47.515 v -61.53 h 20.248 v 61.53 h 47.613 V 0 Z" /></g><g
           transform="translate(76.4561,152.9121)"
           id="g76"><path
             id="path78"
             style="fill:none;stroke:#00adef;stroke-width:0.5;stroke-linecap:butt;stroke-linejoin:miter;stroke-miterlimit:10;stroke-dasharray:none;stroke-opacity:1"
             d="m 0,0 h -14.926 v -47.515 h -61.53 v -20.248 h 61.53 v -47.613 H 0 Z" /></g><g
           transform="translate(76.4561,152.9121)"
           id="g80"><path
             id="path82"
             style="fill:none;stroke:#00adef;stroke-width:0.5;stroke-linecap:butt;stroke-linejoin:miter;stroke-miterlimit:10;stroke-dasharray:none;stroke-opacity:1"
             d="m 0,0 h -14.926 v -47.515 h -61.53 v -20.248 h 61.53 v -47.613 H 0 Z" /></g></g></g><path
       id="path84"
       style="fill:none;stroke:#00adef;stroke-width:0.5;stroke-linecap:butt;stroke-linejoin:miter;stroke-miterlimit:10;stroke-dasharray:none;stroke-opacity:1"
       d="M 634.381,76.456 H 76.456 v 442.817 h 557.925 z" />
       </g>
</svg>